HIERARCHY
ROOT Hips
{
	OFFSET -3.958830 18.904000 13.208200
	CHANNELS 6 Xposition Yposition Zposition Zrotation Yrotation Xrotation 
	JOINT LHipJoint
	{
		OFFSET 0.000000 0.000000 0.000000
		CHANNELS 3 Zrotation Yrotation Xrotation
		JOINT LeftUpLeg
		{
			OFFSET 1.800000 -1.400000 0.085000
			CHANNELS 3 Zrotation Yrotation Xrotation
			JOINT LeftLeg
			{
				OFFSET 2.215000 -6.000000 0.000000
				CHANNELS 3 Zrotation Yrotation Xrotation
				JOINT LeftFoot
				{
					OFFSET 2.500000 -6.900000 0.000000
					CHANNELS 3 Zrotation Yrotation Xrotation
					JOINT LeftToeBase
					{
						OFFSET 0.200000 -0.500000 1.950000
						CHANNELS 3 Zrotation Yrotation Xrotation
						End Site
						{
							OFFSET 0.000000 0.000000 0.000000
						}
					}
				}
			}
		}
	}
	JOINT RHipJoint
	{
		OFFSET 0.000000 0.000000 0.000000
		CHANNELS 3 Zrotation Yrotation Xrotation
		JOINT RightUpLeg
		{
			OFFSET -1.800000 -1.400000 0.085000
			CHANNELS 3 Zrotation Yrotation Xrotation
			JOINT RightLeg
			{
				OFFSET -2.215000 -6.000000 0.000000
				CHANNELS 3 Zrotation Yrotation Xrotation
				JOINT RightFoot
				{
					OFFSET -2.500000 -6.900000 0.000000
					CHANNELS 3 Zrotation Yrotation Xrotation
					JOINT RightToeBase
					{
						OFFSET -0.200000 -0.500000 1.950000
						CHANNELS 3 Zrotation Yrotation Xrotation
						End Site
						{
							OFFSET 0.000000 0.000000 0.000000
						}
					}
				}
			}
		}
	}
	JOINT LowerBack
	{
		OFFSET 0.000000 0.000000 0.000000
		CHANNELS 3 Zrotation Yrotation Xrotation
		JOINT Spine
		{
			OFFSET -0.087000 1.940000 -0.288900
			CHANNELS 3 Zrotation Yrotation Xrotation
			JOINT Spine1
			{
				OFFSET 0.000000 1.950000 0.060000
				CHANNELS 3 Zrotation Yrotation Xrotation
				JOINT Neck
				{
					OFFSET 0.000000 0.000000 0.000000
					CHANNELS 3 Zrotation Yrotation Xrotation
					JOINT Neck1
					{
						OFFSET 0.000000 1.600000 0.340000
						CHANNELS 3 Zrotation Yrotation Xrotation
						JOINT Head
						{
							OFFSET 0.000000 1.667000 -0.240000
							CHANNELS 3 Zrotation Yrotation Xrotation
							End Site
							{
								OFFSET 0.000000 0.000000 0.000000
							}
						}
					}
				}
				JOINT LeftShoulder
				{
					OFFSET 0.000000 0.000000 0.000000
					CHANNELS 3 Zrotation Yrotation Xrotation
					JOINT LeftArm
					{
						OFFSET 2.700000 1.550000 -0.730000
						CHANNELS 3 Zrotation Yrotation Xrotation
						JOINT LeftForeArm
						{
							OFFSET 5.450000 0.000000 0.000000
							CHANNELS 3 Zrotation Yrotation Xrotation
							JOINT LeftHand
							{
								OFFSET 3.450000 0.000000 0.000000
								CHANNELS 3 Zrotation Yrotation Xrotation
								JOINT LeftHandIndex1
								{
									OFFSET 0.750000 0.000000 0.000000
									CHANNELS 3 Zrotation Yrotation Xrotation
									End Site
									{
										OFFSET 0.000000 0.000000 0.000000
									}
								}
							}
						}
					}
				}
				JOINT RightShoulder
				{
					OFFSET 0.000000 0.000000 0.000000
					CHANNELS 3 Zrotation Yrotation Xrotation
					JOINT RightArm
					{
						OFFSET -2.700000 1.550000 -0.730000
						CHANNELS 3 Zrotation Yrotation Xrotation
						JOINT RightForeArm
						{
							OFFSET -5.450000 0.000000 0.000000
							CHANNELS 3 Zrotation Yrotation Xrotation
							JOINT RightHand
							{
								OFFSET -3.450000 0.000000 0.000000
								CHANNELS 3 Zrotation Yrotation Xrotation
								JOINT RightHandIndex1
								{
									OFFSET -0.750000 0.000000 0.000000
									CHANNELS 3 Zrotation Yrotation Xrotation
									End Site
									{
										OFFSET 0.000000 0.000000 0.000000
									}
								}
							}
						}
					}
				}
			}
		}
	}
}
MOTION
Frames: 7
Frame Time: 0.016667
-0.604140 16.539640 -0.106480 -10.427053 36.451596 -19.035102 -15.434109 13.449385 3.115411 15.152862 1.241594 -32.602563 11.241317 6.197373 44.633575 0.313436 7.037317 1.954751 0.724010 0.451900 0.568810 17.764786 -12.180474 1.985705 -17.211183 2.442192 8.582253 0.911536 -7.687599 30.863009 -1.083790 -6.306448 2.430102 0.017970 -0.190750 0.104050 -3.671090 0.087216 -7.734949 -11.880129 6.295946 28.552677 -24.581089 14.360267 8.855277 12.978765 -6.303738 -21.753787 -23.776090 10.381937 59.070995 -0.995030 -2.182910 -7.291520 -9.230901 -22.513563 7.757043 -22.140936 -11.271645 -7.971886 -98.350946 -61.783838 53.545691 -2.861192 3.505407 0.724630 -0.301310 0.373380 0.343040 -15.734355 38.290380 12.816004 -27.523852 1.246971 -18.396673 -76.377446 -25.796535 4.158310 4.616396 -2.342760 0.074150 0.118430 -0.427020 -0.111450 
-0.621560 16.538470 -0.088690 -10.838941 38.009097 -16.532125 -15.464666 13.406331 2.968398 11.918436 4.087544 -37.287184 15.096078 5.622939 42.859183 0.317632 6.719251 2.028470 0.848300 0.610070 0.675300 17.781671 -12.033749 2.128925 -16.131024 4.726357 6.654111 4.544296 -8.160176 31.380453 -1.105906 -6.354225 2.397284 0.097300 -0.265900 0.112960 -3.650711 0.272698 -7.760558 -12.038706 6.910650 26.012823 -25.209418 15.110363 7.411118 12.779198 -6.033879 -20.768503 -22.384704 11.943537 63.814698 -2.978630 -0.704720 -6.900390 -11.597155 -22.260598 8.116003 -24.389131 -9.857936 -8.935586 -95.104719 -57.067781 45.865039 -2.774395 3.571598 0.698200 -0.320320 0.437380 0.377130 -13.210482 39.802682 8.475071 -29.542311 5.755779 -18.946529 -55.600625 -4.964162 -3.172096 4.025719 -1.891544 0.134060 0.098520 -0.528020 -0.103250 
-0.668850 16.525460 -0.082620 -11.107024 38.883497 -16.073144 -15.567952 13.617021 2.628845 9.458138 7.040087 -40.106357 18.729179 5.213249 40.988349 0.192563 6.723513 1.983860 0.898680 0.599060 0.773570 17.722462 -11.770450 2.288514 -15.590854 6.663671 6.634751 8.106943 -8.836885 31.409398 -1.140695 -6.638003 2.245826 0.143280 -0.293010 0.184150 -3.302936 -0.112697 -7.569353 -14.050555 7.965635 24.816219 -24.496634 16.060482 7.923514 13.345864 -5.728592 -18.773828 -18.800096 10.846298 64.816926 -7.709730 0.638600 -7.938470 -13.361321 -20.794621 7.323159 -24.910600 -8.962392 -10.009837 -93.692573 -53.758755 40.891438 -2.820755 3.600996 0.723100 -0.272940 0.419360 0.329260 -12.763266 39.457696 3.591123 -30.921955 10.737876 -17.741593 -33.864488 10.621052 -4.406968 3.401501 -1.814522 0.114800 0.061550 -0.501610 -0.179920 
-0.713670 16.536370 -0.094520 -11.856163 38.194647 -17.373259 -15.546630 13.730994 2.242133 9.371260 9.742653 -40.232908 20.013171 5.509849 39.706371 0.115277 6.762199 1.865340 0.950730 0.634130 0.814860 17.757056 -11.811060 2.467392 -14.670089 7.831312 7.255212 9.601748 -9.038464 31.739209 -1.250242 -6.848762 2.087620 0.167580 -0.363050 0.307490 -3.462104 0.228865 -7.517820 -14.085829 8.956549 26.103793 -25.216750 16.559944 8.386017 13.689594 -5.236567 -18.106115 -15.247174 10.303745 66.534858 -9.766820 1.906670 -11.909080 -14.573880 -21.433436 7.842129 -23.921782 -6.433032 -11.454424 -97.618816 -53.359385 41.752506 -2.810007 3.695234 0.785970 -0.286330 0.488230 0.280410 -12.381453 39.860235 -0.066439 -29.448375 16.401521 -16.014471 -22.343768 15.116015 -3.167987 2.966697 -1.861484 0.166630 -0.012370 -0.446760 -0.218020 
-0.743720 16.545000 -0.089970 -11.702126 39.343205 -17.879118 -15.584896 13.872245 1.990414 8.096000 10.437704 -40.120508 20.919234 5.272399 38.285912 0.143924 6.409851 1.921210 1.095880 0.845210 0.909630 17.722091 -11.732024 2.586604 -14.707208 8.352706 8.327187 11.496523 -9.512074 31.436962 -1.359166 -7.027401 2.006531 0.250480 -0.477670 0.312310 -3.421474 0.117919 -7.383346 -15.941047 10.802029 26.671898 -23.143699 17.500706 9.357619 12.870362 -4.218725 -17.656295 -11.479081 10.115281 70.352444 -8.218130 3.317620 -14.088620 -15.468109 -23.603611 9.218280 -24.185030 -5.331782 -12.343259 -97.880528 -54.247656 42.174813 -2.718750 3.763690 0.771730 -0.350790 0.582210 0.302550 -10.024871 41.063795 -2.139461 -24.686189 20.698757 -15.662835 -20.305002 19.512480 -3.575641 2.869867 -1.982259 0.263530 -0.064720 -0.550990 -0.199640 
-0.770990 16.558060 -0.107410 -12.101471 39.416762 -19.081203 -15.595978 14.015619 1.769374 7.602435 11.363910 -39.716344 22.399703 4.962399 37.032787 0.133383 6.266826 1.940081 1.120190 0.917610 0.938410 17.708716 -11.761749 2.660878 -14.111656 8.379624 9.303871 11.562453 -9.412251 31.172895 -1.397508 -7.016499 2.016759 0.285470 -0.508890 0.284850 -3.446471 0.161440 -7.308464 -16.059031 12.341475 28.275955 -21.733640 18.359977 9.495284 12.304000 -4.113616 -16.940972 -10.153182 10.050038 72.852057 -8.616030 3.883350 -16.920480 -17.332977 -25.482808 10.319201 -23.401960 -4.609161 -12.633122 -100.397262 -55.273062 44.815370 -2.742525 3.694525 0.776300 -0.377000 0.621650 0.282750 -7.274677 43.008650 -4.309435 -20.248307 24.721228 -16.112057 -19.889821 21.522032 -4.080614 2.842981 -1.892671 0.276130 -0.011350 -0.549580 -0.198640 
-0.796380 16.565610 -0.141790 -13.298681 38.201850 -20.109409 -15.529112 14.031093 1.608204 7.441426 12.838122 -40.417855 24.553833 4.832693 35.533595 0.049231 6.340375 1.921438 1.087430 0.842010 0.982120 17.766040 -11.898593 2.786319 -12.858131 9.089584 8.763932 11.741038 -9.209034 32.016877 -1.433433 -6.954746 2.051874 0.268460 -0.506410 0.229170 -3.711157 0.681195 -7.449609 -13.642088 13.342842 30.482732 -21.961808 19.037422 6.813722 12.125283 -3.909288 -18.026002 -9.631500 9.787081 79.629312 -9.381410 3.345360 -18.096150 -19.323380 -28.134315 11.408086 -23.121047 -3.509999 -12.412497 -95.397565 -52.056628 38.199404 -2.671393 3.489644 0.907400 -0.416800 0.648910 0.245330 -4.677592 46.656613 -6.614823 -14.236877 26.069989 -15.560243 -18.413908 22.372667 -3.967152 2.842240 -1.697820 0.180680 0.123140 -0.500420 -0.258120 
